<mxfile host="Electron" agent="Mozilla/5.0 (Macintosh; Intel Mac OS X 10_15_7) AppleWebKit/537.36 (KHTML, like Gecko) draw.io/26.0.9 Chrome/128.0.6613.186 Electron/32.2.5 Safari/537.36" version="26.0.9">
  <diagram name="Страница — 1" id="S2KzS81yPY7KGjw3_pqM">
    <mxGraphModel dx="1863" dy="755" grid="1" gridSize="10" guides="1" tooltips="1" connect="1" arrows="1" fold="1" page="1" pageScale="1" pageWidth="827" pageHeight="1169" math="0" shadow="0">
      <root>
        <mxCell id="0" />
        <mxCell id="1" parent="0" />
        <mxCell id="ujdgUaV7rr-wv9tQXF2l-4" style="edgeStyle=orthogonalEdgeStyle;rounded=0;orthogonalLoop=1;jettySize=auto;html=1;exitX=1;exitY=0.25;exitDx=0;exitDy=0;entryX=0;entryY=0.5;entryDx=0;entryDy=0;" edge="1" parent="1" source="ujdgUaV7rr-wv9tQXF2l-1" target="ujdgUaV7rr-wv9tQXF2l-3">
          <mxGeometry relative="1" as="geometry" />
        </mxCell>
        <mxCell id="ujdgUaV7rr-wv9tQXF2l-54" style="edgeStyle=orthogonalEdgeStyle;rounded=0;orthogonalLoop=1;jettySize=auto;html=1;exitX=1;exitY=0.5;exitDx=0;exitDy=0;entryX=0.25;entryY=0;entryDx=0;entryDy=0;" edge="1" parent="1" source="ujdgUaV7rr-wv9tQXF2l-1" target="ujdgUaV7rr-wv9tQXF2l-31">
          <mxGeometry relative="1" as="geometry" />
        </mxCell>
        <mxCell id="ujdgUaV7rr-wv9tQXF2l-1" value="Mem" style="whiteSpace=wrap;html=1;aspect=fixed;" vertex="1" parent="1">
          <mxGeometry x="70" y="190" width="150" height="150" as="geometry" />
        </mxCell>
        <mxCell id="ujdgUaV7rr-wv9tQXF2l-2" value="CU" style="rounded=0;whiteSpace=wrap;html=1;" vertex="1" parent="1">
          <mxGeometry x="225" y="70" width="830" height="50" as="geometry" />
        </mxCell>
        <mxCell id="ujdgUaV7rr-wv9tQXF2l-3" value="IR" style="whiteSpace=wrap;html=1;aspect=fixed;" vertex="1" parent="1">
          <mxGeometry x="430" y="188" width="80" height="80" as="geometry" />
        </mxCell>
        <mxCell id="ujdgUaV7rr-wv9tQXF2l-8" value="" style="endArrow=none;dashed=1;html=1;dashPattern=1 3;strokeWidth=2;rounded=0;" edge="1" parent="1">
          <mxGeometry width="50" height="50" relative="1" as="geometry">
            <mxPoint x="535" y="210" as="sourcePoint" />
            <mxPoint x="585" y="210" as="targetPoint" />
          </mxGeometry>
        </mxCell>
        <mxCell id="ujdgUaV7rr-wv9tQXF2l-9" value="latch IR" style="text;html=1;align=center;verticalAlign=middle;resizable=0;points=[];autosize=1;strokeColor=none;fillColor=none;" vertex="1" parent="1">
          <mxGeometry x="530" y="180" width="60" height="30" as="geometry" />
        </mxCell>
        <mxCell id="ujdgUaV7rr-wv9tQXF2l-10" style="edgeStyle=orthogonalEdgeStyle;rounded=0;orthogonalLoop=1;jettySize=auto;html=1;exitX=0.5;exitY=0;exitDx=0;exitDy=0;entryX=0.453;entryY=1.054;entryDx=0;entryDy=0;entryPerimeter=0;" edge="1" parent="1" source="ujdgUaV7rr-wv9tQXF2l-3" target="ujdgUaV7rr-wv9tQXF2l-2">
          <mxGeometry relative="1" as="geometry" />
        </mxCell>
        <mxCell id="ujdgUaV7rr-wv9tQXF2l-40" style="edgeStyle=orthogonalEdgeStyle;rounded=0;orthogonalLoop=1;jettySize=auto;html=1;exitX=0.5;exitY=1;exitDx=0;exitDy=0;entryX=0.75;entryY=0;entryDx=0;entryDy=0;" edge="1" parent="1" source="ujdgUaV7rr-wv9tQXF2l-13" target="ujdgUaV7rr-wv9tQXF2l-19">
          <mxGeometry relative="1" as="geometry" />
        </mxCell>
        <mxCell id="ujdgUaV7rr-wv9tQXF2l-13" value="&lt;div&gt;imm value&lt;/div&gt;sign extend" style="shape=parallelogram;perimeter=parallelogramPerimeter;whiteSpace=wrap;html=1;fixedSize=1;" vertex="1" parent="1">
          <mxGeometry x="900" y="308" width="120" height="60" as="geometry" />
        </mxCell>
        <mxCell id="ujdgUaV7rr-wv9tQXF2l-14" style="edgeStyle=orthogonalEdgeStyle;rounded=0;orthogonalLoop=1;jettySize=auto;html=1;exitX=0.5;exitY=0;exitDx=0;exitDy=0;entryX=0.886;entryY=0.987;entryDx=0;entryDy=0;entryPerimeter=0;startArrow=classicThin;startFill=1;endArrow=none;" edge="1" parent="1" source="ujdgUaV7rr-wv9tQXF2l-13" target="ujdgUaV7rr-wv9tQXF2l-2">
          <mxGeometry relative="1" as="geometry">
            <Array as="points" />
          </mxGeometry>
        </mxCell>
        <mxCell id="ujdgUaV7rr-wv9tQXF2l-16" value="Register file" style="rounded=0;whiteSpace=wrap;html=1;" vertex="1" parent="1">
          <mxGeometry x="810" y="198" width="75" height="170" as="geometry" />
        </mxCell>
        <mxCell id="ujdgUaV7rr-wv9tQXF2l-28" style="edgeStyle=orthogonalEdgeStyle;rounded=0;orthogonalLoop=1;jettySize=auto;html=1;exitX=0.5;exitY=1;exitDx=0;exitDy=0;entryX=0.75;entryY=0;entryDx=0;entryDy=0;" edge="1" parent="1" source="ujdgUaV7rr-wv9tQXF2l-19" target="ujdgUaV7rr-wv9tQXF2l-25">
          <mxGeometry relative="1" as="geometry" />
        </mxCell>
        <mxCell id="ujdgUaV7rr-wv9tQXF2l-19" value="ALUSrc" style="verticalLabelPosition=middle;verticalAlign=middle;html=1;shape=trapezoid;perimeter=trapezoidPerimeter;whiteSpace=wrap;size=0.23;arcSize=10;flipV=1;labelPosition=center;align=center;" vertex="1" parent="1">
          <mxGeometry x="810" y="460" width="200" height="60" as="geometry" />
        </mxCell>
        <mxCell id="ujdgUaV7rr-wv9tQXF2l-21" style="edgeStyle=orthogonalEdgeStyle;rounded=0;orthogonalLoop=1;jettySize=auto;html=1;exitX=0.75;exitY=1;exitDx=0;exitDy=0;entryX=0.281;entryY=0.998;entryDx=0;entryDy=0;entryPerimeter=0;" edge="1" parent="1" source="ujdgUaV7rr-wv9tQXF2l-16" target="ujdgUaV7rr-wv9tQXF2l-19">
          <mxGeometry relative="1" as="geometry" />
        </mxCell>
        <mxCell id="ujdgUaV7rr-wv9tQXF2l-23" value="" style="endArrow=none;dashed=1;html=1;dashPattern=1 3;strokeWidth=2;rounded=0;" edge="1" parent="1">
          <mxGeometry width="50" height="50" relative="1" as="geometry">
            <mxPoint x="1005" y="490" as="sourcePoint" />
            <mxPoint x="1065" y="490" as="targetPoint" />
          </mxGeometry>
        </mxCell>
        <mxCell id="ujdgUaV7rr-wv9tQXF2l-24" value="Sign ext" style="text;html=1;align=center;verticalAlign=middle;resizable=0;points=[];autosize=1;strokeColor=none;fillColor=none;" vertex="1" parent="1">
          <mxGeometry x="1000" y="460" width="70" height="30" as="geometry" />
        </mxCell>
        <mxCell id="ujdgUaV7rr-wv9tQXF2l-27" style="edgeStyle=orthogonalEdgeStyle;rounded=0;orthogonalLoop=1;jettySize=auto;html=1;exitX=0.25;exitY=0;exitDx=0;exitDy=0;entryX=0;entryY=0.75;entryDx=0;entryDy=0;startArrow=classic;startFill=1;endArrow=none;" edge="1" parent="1" source="ujdgUaV7rr-wv9tQXF2l-25" target="ujdgUaV7rr-wv9tQXF2l-16">
          <mxGeometry relative="1" as="geometry" />
        </mxCell>
        <mxCell id="ujdgUaV7rr-wv9tQXF2l-41" style="edgeStyle=orthogonalEdgeStyle;rounded=0;orthogonalLoop=1;jettySize=auto;html=1;exitX=0.5;exitY=1;exitDx=0;exitDy=0;entryX=0.5;entryY=1;entryDx=0;entryDy=0;" edge="1" parent="1" source="ujdgUaV7rr-wv9tQXF2l-25" target="ujdgUaV7rr-wv9tQXF2l-36">
          <mxGeometry relative="1" as="geometry" />
        </mxCell>
        <mxCell id="ujdgUaV7rr-wv9tQXF2l-25" value="ALU" style="verticalLabelPosition=middle;verticalAlign=middle;html=1;shape=trapezoid;perimeter=trapezoidPerimeter;whiteSpace=wrap;size=0.23;arcSize=10;flipV=1;labelPosition=center;align=center;" vertex="1" parent="1">
          <mxGeometry x="627" y="640" width="200" height="60" as="geometry" />
        </mxCell>
        <mxCell id="ujdgUaV7rr-wv9tQXF2l-29" value="" style="endArrow=none;dashed=1;html=1;dashPattern=1 3;strokeWidth=2;rounded=0;" edge="1" parent="1">
          <mxGeometry width="50" height="50" relative="1" as="geometry">
            <mxPoint x="585" y="680" as="sourcePoint" />
            <mxPoint x="635" y="680" as="targetPoint" />
          </mxGeometry>
        </mxCell>
        <mxCell id="ujdgUaV7rr-wv9tQXF2l-30" value="alu_op" style="text;html=1;align=center;verticalAlign=middle;resizable=0;points=[];autosize=1;strokeColor=none;fillColor=none;" vertex="1" parent="1">
          <mxGeometry x="580" y="640" width="60" height="30" as="geometry" />
        </mxCell>
        <mxCell id="ujdgUaV7rr-wv9tQXF2l-57" style="edgeStyle=orthogonalEdgeStyle;rounded=0;orthogonalLoop=1;jettySize=auto;html=1;exitX=0.5;exitY=1;exitDx=0;exitDy=0;entryX=0;entryY=0.25;entryDx=0;entryDy=0;" edge="1" parent="1" source="ujdgUaV7rr-wv9tQXF2l-31" target="ujdgUaV7rr-wv9tQXF2l-16">
          <mxGeometry relative="1" as="geometry">
            <Array as="points">
              <mxPoint x="445" y="470" />
              <mxPoint x="560" y="470" />
              <mxPoint x="560" y="241" />
            </Array>
          </mxGeometry>
        </mxCell>
        <mxCell id="ujdgUaV7rr-wv9tQXF2l-31" value="WriteBack" style="verticalLabelPosition=middle;verticalAlign=middle;html=1;shape=trapezoid;perimeter=trapezoidPerimeter;whiteSpace=wrap;size=0.23;arcSize=10;flipV=1;labelPosition=center;align=center;" vertex="1" parent="1">
          <mxGeometry x="360" y="410" width="170" height="40" as="geometry" />
        </mxCell>
        <mxCell id="ujdgUaV7rr-wv9tQXF2l-45" style="edgeStyle=orthogonalEdgeStyle;rounded=0;orthogonalLoop=1;jettySize=auto;html=1;exitX=1;exitY=0.5;exitDx=0;exitDy=0;entryX=0.25;entryY=0;entryDx=0;entryDy=0;" edge="1" parent="1" source="ujdgUaV7rr-wv9tQXF2l-32" target="ujdgUaV7rr-wv9tQXF2l-44">
          <mxGeometry relative="1" as="geometry" />
        </mxCell>
        <mxCell id="ujdgUaV7rr-wv9tQXF2l-52" style="edgeStyle=orthogonalEdgeStyle;rounded=0;orthogonalLoop=1;jettySize=auto;html=1;exitX=0.5;exitY=0;exitDx=0;exitDy=0;entryX=0.5;entryY=1;entryDx=0;entryDy=0;" edge="1" parent="1" source="ujdgUaV7rr-wv9tQXF2l-32" target="ujdgUaV7rr-wv9tQXF2l-1">
          <mxGeometry relative="1" as="geometry" />
        </mxCell>
        <mxCell id="ujdgUaV7rr-wv9tQXF2l-32" value="pc" style="whiteSpace=wrap;html=1;aspect=fixed;" vertex="1" parent="1">
          <mxGeometry x="50" y="380" width="30" height="30" as="geometry" />
        </mxCell>
        <mxCell id="ujdgUaV7rr-wv9tQXF2l-33" style="edgeStyle=orthogonalEdgeStyle;rounded=0;orthogonalLoop=1;jettySize=auto;html=1;exitX=0.5;exitY=1;exitDx=0;exitDy=0;entryX=0.706;entryY=1;entryDx=0;entryDy=0;entryPerimeter=0;" edge="1" parent="1" source="ujdgUaV7rr-wv9tQXF2l-25" target="ujdgUaV7rr-wv9tQXF2l-31">
          <mxGeometry relative="1" as="geometry" />
        </mxCell>
        <mxCell id="ujdgUaV7rr-wv9tQXF2l-49" style="edgeStyle=orthogonalEdgeStyle;rounded=0;orthogonalLoop=1;jettySize=auto;html=1;exitX=0.5;exitY=0;exitDx=0;exitDy=0;entryX=0.25;entryY=1;entryDx=0;entryDy=0;" edge="1" parent="1" source="ujdgUaV7rr-wv9tQXF2l-36" target="ujdgUaV7rr-wv9tQXF2l-48">
          <mxGeometry relative="1" as="geometry" />
        </mxCell>
        <mxCell id="ujdgUaV7rr-wv9tQXF2l-53" style="edgeStyle=orthogonalEdgeStyle;rounded=0;orthogonalLoop=1;jettySize=auto;html=1;exitX=0.5;exitY=0;exitDx=0;exitDy=0;entryX=1;entryY=0.75;entryDx=0;entryDy=0;" edge="1" parent="1" source="ujdgUaV7rr-wv9tQXF2l-36" target="ujdgUaV7rr-wv9tQXF2l-1">
          <mxGeometry relative="1" as="geometry">
            <Array as="points">
              <mxPoint x="210" y="585" />
              <mxPoint x="210" y="510" />
              <mxPoint x="270" y="510" />
              <mxPoint x="270" y="302" />
            </Array>
          </mxGeometry>
        </mxCell>
        <mxCell id="ujdgUaV7rr-wv9tQXF2l-36" value="AR" style="whiteSpace=wrap;html=1;aspect=fixed;" vertex="1" parent="1">
          <mxGeometry x="170" y="585" width="40" height="40" as="geometry" />
        </mxCell>
        <mxCell id="ujdgUaV7rr-wv9tQXF2l-37" value="" style="endArrow=none;dashed=1;html=1;dashPattern=1 3;strokeWidth=2;rounded=0;" edge="1" parent="1">
          <mxGeometry width="50" height="50" relative="1" as="geometry">
            <mxPoint x="264.63" y="590" as="sourcePoint" />
            <mxPoint x="220" y="590" as="targetPoint" />
          </mxGeometry>
        </mxCell>
        <mxCell id="ujdgUaV7rr-wv9tQXF2l-38" value="latch AR" style="text;html=1;align=center;verticalAlign=middle;resizable=0;points=[];autosize=1;strokeColor=none;fillColor=none;" vertex="1" parent="1">
          <mxGeometry x="210" y="560" width="70" height="30" as="geometry" />
        </mxCell>
        <mxCell id="ujdgUaV7rr-wv9tQXF2l-50" style="edgeStyle=orthogonalEdgeStyle;rounded=0;orthogonalLoop=1;jettySize=auto;html=1;exitX=0.5;exitY=1;exitDx=0;exitDy=0;entryX=0.75;entryY=1;entryDx=0;entryDy=0;" edge="1" parent="1" source="ujdgUaV7rr-wv9tQXF2l-44" target="ujdgUaV7rr-wv9tQXF2l-48">
          <mxGeometry relative="1" as="geometry" />
        </mxCell>
        <mxCell id="ujdgUaV7rr-wv9tQXF2l-44" value="+" style="verticalLabelPosition=middle;verticalAlign=middle;html=1;shape=trapezoid;perimeter=trapezoidPerimeter;whiteSpace=wrap;size=0.23;arcSize=10;flipV=1;labelPosition=center;align=center;" vertex="1" parent="1">
          <mxGeometry x="130" y="420" width="120" height="40" as="geometry" />
        </mxCell>
        <mxCell id="ujdgUaV7rr-wv9tQXF2l-46" value="4" style="text;html=1;align=center;verticalAlign=middle;resizable=0;points=[];autosize=1;strokeColor=none;fillColor=none;" vertex="1" parent="1">
          <mxGeometry x="220" y="390" width="30" height="30" as="geometry" />
        </mxCell>
        <mxCell id="ujdgUaV7rr-wv9tQXF2l-51" style="edgeStyle=orthogonalEdgeStyle;rounded=0;orthogonalLoop=1;jettySize=auto;html=1;exitX=0.5;exitY=0;exitDx=0;exitDy=0;entryX=0.5;entryY=1;entryDx=0;entryDy=0;" edge="1" parent="1" source="ujdgUaV7rr-wv9tQXF2l-48" target="ujdgUaV7rr-wv9tQXF2l-32">
          <mxGeometry relative="1" as="geometry" />
        </mxCell>
        <mxCell id="ujdgUaV7rr-wv9tQXF2l-48" value="branchMux" style="verticalLabelPosition=middle;verticalAlign=middle;html=1;shape=trapezoid;perimeter=trapezoidPerimeter;whiteSpace=wrap;size=0.23;arcSize=10;flipV=0;labelPosition=center;align=center;" vertex="1" parent="1">
          <mxGeometry x="-5" y="480" width="140" height="40" as="geometry" />
        </mxCell>
        <mxCell id="ujdgUaV7rr-wv9tQXF2l-55" value="memToReg" style="text;html=1;align=center;verticalAlign=middle;resizable=0;points=[];autosize=1;strokeColor=none;fillColor=none;" vertex="1" parent="1">
          <mxGeometry x="310" y="420" width="80" height="30" as="geometry" />
        </mxCell>
        <mxCell id="ujdgUaV7rr-wv9tQXF2l-56" value="" style="endArrow=none;dashed=1;html=1;dashPattern=1 3;strokeWidth=2;rounded=0;" edge="1" parent="1">
          <mxGeometry width="50" height="50" relative="1" as="geometry">
            <mxPoint x="320" y="449" as="sourcePoint" />
            <mxPoint x="370" y="449.29" as="targetPoint" />
          </mxGeometry>
        </mxCell>
        <mxCell id="ujdgUaV7rr-wv9tQXF2l-58" value="" style="endArrow=none;dashed=1;html=1;dashPattern=1 3;strokeWidth=2;rounded=0;" edge="1" parent="1">
          <mxGeometry width="50" height="50" relative="1" as="geometry">
            <mxPoint x="-50" y="489.44" as="sourcePoint" />
            <mxPoint y="489.73" as="targetPoint" />
          </mxGeometry>
        </mxCell>
        <mxCell id="ujdgUaV7rr-wv9tQXF2l-59" value="branch" style="text;html=1;align=center;verticalAlign=middle;resizable=0;points=[];autosize=1;strokeColor=none;fillColor=none;" vertex="1" parent="1">
          <mxGeometry x="-60" y="490" width="60" height="30" as="geometry" />
        </mxCell>
        <mxCell id="ujdgUaV7rr-wv9tQXF2l-60" style="edgeStyle=orthogonalEdgeStyle;rounded=0;orthogonalLoop=1;jettySize=auto;html=1;exitX=0;exitY=0.5;exitDx=0;exitDy=0;entryX=0.987;entryY=0.617;entryDx=0;entryDy=0;entryPerimeter=0;" edge="1" parent="1" source="ujdgUaV7rr-wv9tQXF2l-16" target="ujdgUaV7rr-wv9tQXF2l-1">
          <mxGeometry relative="1" as="geometry" />
        </mxCell>
        <mxCell id="ujdgUaV7rr-wv9tQXF2l-61" value="regTomem" style="text;html=1;align=center;verticalAlign=middle;resizable=0;points=[];autosize=1;strokeColor=none;fillColor=none;" vertex="1" parent="1">
          <mxGeometry x="720" y="240" width="80" height="30" as="geometry" />
        </mxCell>
        <mxCell id="ujdgUaV7rr-wv9tQXF2l-62" value="" style="endArrow=none;dashed=1;html=1;dashPattern=1 3;strokeWidth=2;rounded=0;" edge="1" parent="1">
          <mxGeometry width="50" height="50" relative="1" as="geometry">
            <mxPoint x="720" y="270" as="sourcePoint" />
            <mxPoint x="790" y="270" as="targetPoint" />
          </mxGeometry>
        </mxCell>
      </root>
    </mxGraphModel>
  </diagram>
</mxfile>
